<svg xmlns="http://www.w3.org/2000/svg" width="64" height="64" viewBox="0 0 64 64">
  <defs>
    <linearGradient id="oxsGrad" x1="0%" y1="0%" x2="100%" y2="0%">
      <stop offset="0%" stop-color="#1e90ff"/>
      <stop offset="100%" stop-color="#2fe39a"/>
    </linearGradient>
  </defs>
  <rect width="64" height="64" rx="12" fill="black"/>
  <g fill="url(#oxsGrad)" transform="translate(6, 46)">
    <path d="M12 -10c0 -8 6 -14 14 -14s14 6 14 14s-6 14 -14 14s-14 -6 -14 -14zm6 0c0 5 3 8 8 8s8 -3 8 -8s-3 -8 -8 -8s-8 3 -8 8z"/>
    <path d="M34 -22h20v6h-12l12 12v6h-20v-6h12l-12 -12v-6z"/>
    <path d="M20 -22h8l-8 8l8 8h-8l-4 -4l-4 4h-8l8 -8l-8 -8h8l4 4l4 -4z"/>
  </g>
</svg>
